<svg xmlns="http://www.w3.org/2000/svg" viewBox="0 0 310 200">
  <defs>
    <linearGradient id="s" x1="0" y1="0" x2="1" y2="1">
      <stop offset="0%" stop-color="#e9eef4"/>
      <stop offset="45%" stop-color="#3d5468"/>
      <stop offset="78%" stop-color="#7f97ab"/>
      <stop offset="100%" stop-color="#dce6ef"/>
    </linearGradient>
  </defs>
  <path d="M155 100c-26-40-50-60-83-60-33 0-57 26-57 60s24 60 57 60c33 0 57-20 83-60 26-40 50-60 83-60 33 0 57 26 57 60s-24 60-57 60c-33 0-57-20-83-60Z"
        fill="none" stroke="url(#s)" stroke-width="24" stroke-linecap="round"/>
  <path d="M155 100c-26-40-50-60-83-60-33 0-57 26-57 60s24 60 57 60c33 0 57-20 83-60 26-40 50-60 83-60 33 0 57 26 57 60s-24 60-57 60c-33 0-57-20-83-60Z"
        fill="none" stroke="#39c7d8" stroke-width="8" stroke-linecap="round"/>
</svg>
